HIERARCHY
ROOT Hips
{
	OFFSET 292.461487 92.071327 404.531097
	CHANNELS 6 Xposition Yposition Zposition Zrotation Yrotation Xrotation 
	JOINT LeftUpLeg
	{
		OFFSET 0.103459 1.857814 10.548504
		CHANNELS 3 Xrotation Yrotation Zrotation
		JOINT LeftLeg
		{
			OFFSET 43.500000 -0.000004 -0.000011
			CHANNELS 3 Xrotation Yrotation Zrotation
			JOINT LeftFoot
			{
				OFFSET 42.372196 -0.000004 0.000004
				CHANNELS 3 Xrotation Yrotation Zrotation
				JOINT LeftToe
				{
					OFFSET 17.300003 0.000001 -0.000008
					CHANNELS 3 Xrotation Yrotation Zrotation
					End Site
					{
						OFFSET 0.000000 0.000000 0.000000
					}
				}
			}
		}
	}
	JOINT RightUpLeg
	{
		OFFSET 0.103457 1.857841 -10.548511
		CHANNELS 3 Xrotation Yrotation Zrotation
		JOINT RightLeg
		{
			OFFSET 43.500042 -0.000038 0.000000
			CHANNELS 3 Xrotation Yrotation Zrotation
			JOINT RightFoot
			{
				OFFSET 42.372269 -0.000023 0.000011
				CHANNELS 3 Xrotation Yrotation Zrotation
				JOINT RightToe
				{
					OFFSET 17.300003 -0.000001 0.000023
					CHANNELS 3 Xrotation Yrotation Zrotation
					End Site
					{
						OFFSET 0.000000 0.000000 0.000000
					}
				}
			}
		}
	}
	JOINT Spine
	{
		OFFSET 6.901971 -2.603744 -0.000012
		CHANNELS 3 Xrotation Yrotation Zrotation
		JOINT Spine1
		{
			OFFSET 12.588097 -0.000002 0.000018
			CHANNELS 3 Xrotation Yrotation Zrotation
			JOINT Spine2
			{
				OFFSET 12.343208 0.000014 -0.000019
				CHANNELS 3 Xrotation Yrotation Zrotation
				JOINT Neck
				{
					OFFSET 25.832897 0.000008 0.000016
					CHANNELS 3 Xrotation Yrotation Zrotation
					JOINT Head
					{
						OFFSET 11.766600 -0.000006 0.000008
						CHANNELS 3 Xrotation Yrotation Zrotation
						End Site
						{
							OFFSET 0.000000 0.000000 0.000000
						}
					}
				}
				JOINT LeftShoulder
				{
					OFFSET 19.745909 -1.480356 6.000120
					CHANNELS 3 Xrotation Yrotation Zrotation
					JOINT LeftArm
					{
						OFFSET 11.284115 -0.000000 -0.000025
						CHANNELS 3 Xrotation Yrotation Zrotation
						JOINT LeftForeArm
						{
							OFFSET 33.000057 0.000003 0.000029
							CHANNELS 3 Xrotation Yrotation Zrotation
							JOINT LeftHand
							{
								OFFSET 25.200006 0.000029 0.000011
								CHANNELS 3 Xrotation Yrotation Zrotation
								End Site
								{
									OFFSET 0.000000 0.000000 0.000000
								}
							}
						}
					}
				}
				JOINT RightShoulder
				{
					OFFSET 19.746088 -1.480379 -6.000049
					CHANNELS 3 Xrotation Yrotation Zrotation
					JOINT RightArm
					{
						OFFSET 11.284159 -0.000019 -0.000011
						CHANNELS 3 Xrotation Yrotation Zrotation
						JOINT RightForeArm
						{
							OFFSET 33.000076 -0.000001 0.000001
							CHANNELS 3 Xrotation Yrotation Zrotation
							JOINT RightHand
							{
								OFFSET 25.199781 0.000139 0.000430
								CHANNELS 3 Xrotation Yrotation Zrotation
								End Site
								{
									OFFSET 0.000000 0.000000 0.000000
								}
							}
						}
					}
				}
			}
		}
	}
}
MOTION
Frames: 10
Frame Time: 0.033333
-159.256805 88.991577 106.390297 84.338302 2.098728 0.057098 -167.954939 5.972397 -175.610038 -15.083276 -3.624069 1.601903 89.061999 0.154410 6.780929 21.454560 0.003108 0.000018 161.651795 2.203797 175.598344 -8.705722 3.184744 3.071640 74.376928 -1.775533 1.725954 21.454551 -0.003092 -0.000000 6.721135 -0.649899 -2.295127 3.454439 -1.231946 -4.608615 3.137401 -1.259862 -4.601118 11.999550 -3.155782 1.704940 -22.819356 2.706687 0.487353 174.187118 -72.000931 4.615847 -18.984501 50.578224 37.767196 -35.232954 -17.699797 1.541830 5.015657 -7.089316 8.884202 -142.353259 76.866150 39.896440 -11.691096 -65.338116 -42.302452 -22.905992 13.095337 -0.989601 5.223298 11.392490 -0.534535 
-161.713196 88.546959 106.364197 84.307962 2.457281 0.246704 -166.264180 6.187194 -175.391212 -15.037857 -3.706712 1.731204 89.694905 0.068169 6.988556 21.454555 0.003109 0.000017 161.497132 2.008103 174.722154 -7.040731 3.101488 3.477385 75.215245 -1.752163 2.841578 21.454551 -0.003092 -0.000000 6.755832 -0.619098 -2.292298 3.522517 -1.169069 -4.602351 3.205474 -1.196950 -4.595232 11.923783 -3.222621 1.557219 -23.449974 2.461711 0.412789 174.123379 -72.310400 4.672606 -19.108364 51.340445 37.005162 -35.650275 -17.860239 1.562046 4.892685 -7.277577 8.832072 -142.357398 76.732859 39.897823 -10.701988 -65.795649 -43.546301 -21.499982 12.587806 -0.938293 5.749589 11.385653 -0.265102 
-164.104904 88.311821 106.266800 84.238342 2.280658 0.480896 -164.531512 5.823501 -175.327691 -14.824345 -3.709141 1.898791 89.887899 -0.053830 7.007601 21.454557 0.003108 0.000017 161.862492 1.506394 174.254942 -7.216172 3.169150 3.414511 74.094316 -1.585075 3.170799 21.454553 -0.003092 -0.000000 6.792622 -0.480420 -2.289110 3.590388 -0.890509 -4.591957 3.273365 -0.918330 -4.586515 12.081367 -3.304919 1.396881 -24.123330 2.117662 0.376631 174.304529 -72.469960 4.482149 -18.909667 52.135421 36.447699 -35.752567 -17.841974 1.563295 5.026316 -7.332179 8.888063 -142.908704 76.582799 39.342057 -9.806385 -65.941740 -44.417885 -20.558798 12.082594 -0.894206 5.693229 11.378886 -0.901394 
-166.460007 88.375999 106.060699 84.266769 1.467602 0.962005 -163.022040 4.741103 -175.727544 -14.642773 -3.497235 2.330870 89.500982 -0.354778 6.856882 21.454562 0.003108 0.000017 162.715433 0.301895 174.132189 -7.905121 3.188085 3.106738 70.614307 -2.229945 0.299676 21.454553 -0.003092 0.000000 6.789270 -0.201613 -2.316442 3.572440 -0.332556 -4.637935 3.255491 -0.360666 -4.635850 12.315402 -3.560696 1.207839 -24.612230 1.814555 0.292898 174.505104 -72.542305 4.274149 -18.458924 53.031809 36.263756 -35.352851 -17.640972 1.540848 5.046347 -7.148800 8.613378 -142.876615 76.354896 39.384035 -9.159823 -65.962620 -44.937857 -20.031499 11.816343 -0.870870 5.265478 10.389069 -1.352003 
-169.073898 88.585442 105.794800 84.366053 0.390374 1.597900 -161.617603 3.366302 -176.049123 -14.633752 -3.169997 2.686919 88.531047 -0.643734 6.323463 21.454557 0.003109 0.000017 164.065638 -1.198197 173.254592 -7.516270 2.831601 3.356451 66.713695 -2.834245 -0.831415 21.454550 -0.003092 0.000000 6.694463 0.144514 -2.354530 3.368818 0.356518 -4.703937 3.051892 0.327999 -4.705999 12.910509 -3.942647 1.030569 -25.010172 1.723537 0.139941 174.392010 -72.568977 4.389517 -17.537641 54.087336 36.929054 -34.462266 -17.278801 1.496816 5.532353 -6.869873 7.165160 -142.688225 76.180249 39.583381 -7.962325 -65.789017 -45.874450 -19.878960 11.696907 -0.861431 4.350922 9.521743 -2.045989 
-171.909393 88.812401 105.489502 84.489358 -0.693326 1.879212 -160.658699 2.078094 -176.985924 -15.602678 -2.688609 3.221335 87.164443 -1.150338 5.234736 21.454558 0.003108 0.000017 165.405216 -2.423096 172.142241 -7.511580 2.852356 4.573236 63.855104 -3.284452 0.369160 21.454553 -0.003092 -0.000000 6.524017 0.507741 -2.312214 3.013746 1.074482 -4.610857 2.696713 1.046510 -4.617241 13.806866 -4.595972 0.837764 -25.081580 1.701586 -0.048458 174.163308 -72.584659 4.623920 -16.294977 55.308980 38.213556 -33.196191 -16.704011 1.431443 6.013133 -6.413577 6.242375 -142.859321 76.066615 39.413583 -6.370987 -65.182121 -47.295720 -20.236295 11.742485 -0.868544 4.078207 8.403649 -1.816002 
-174.792206 89.162437 105.168098 84.536432 -1.879658 1.820587 -160.120739 0.798797 -178.372043 -17.385027 -1.885126 4.140309 85.100831 -2.059541 3.537573 21.454557 0.003107 0.000017 166.688403 -3.857300 171.884716 -8.280395 3.307201 4.849127 64.443340 -4.395001 -1.959887 21.454551 -0.003092 0.000000 6.378129 0.891322 -2.217453 2.708474 1.833241 -4.414438 2.391247 1.806438 -4.425401 14.281106 -5.396257 0.655768 -24.639930 1.619673 -0.205631 174.652486 -72.436724 4.125694 -15.079794 56.347264 39.708466 -31.869492 -16.120256 1.365513 6.578272 -5.344320 6.247851 -142.763999 76.091941 39.509683 -5.849307 -64.564494 -48.050367 -20.561017 11.758873 -0.873479 3.847462 8.059128 -1.844030 
-177.694702 89.554993 104.836098 84.762620 -2.845968 1.568512 -160.227509 -0.276795 -179.404617 -19.828797 -1.140155 4.966816 82.223750 -3.115169 1.212226 21.454555 0.003108 0.000017 167.968326 -5.147400 172.245295 -8.967513 3.464538 4.530060 66.031113 -4.625322 -3.317697 21.454555 -0.003092 -0.000000 6.184352 1.204026 -2.106884 2.311621 2.448822 -4.190885 1.994150 2.423356 -4.205566 14.889870 -6.179253 0.570399 -24.363174 1.659233 -0.300641 174.946881 -72.737294 3.815163 -13.443785 57.657226 41.353459 -30.936379 -15.647089 1.315971 6.506527 -4.262065 7.508159 -143.033642 76.178876 39.231087 -5.638975 -64.058206 -48.560159 -20.958389 12.044199 -0.896637 3.693667 8.193120 -1.903251 
-180.476501 89.847023 104.624702 84.979288 -3.478042 1.422913 -161.309206 -0.866501 179.570659 -23.791311 0.087135 5.859563 78.983324 -4.590207 -1.937513 21.454558 0.003107 0.000017 169.253563 -5.925904 172.733257 -9.577174 3.670940 4.172483 67.812495 -4.614787 -4.217862 21.454557 -0.003092 0.000000 6.029019 1.429236 -2.023540 1.995054 2.892060 -4.024205 1.677372 2.867588 -4.041571 15.036265 -7.012285 0.512602 -23.620507 1.656570 -0.362119 174.488206 -73.301249 4.270650 -11.321203 58.724266 43.782199 -30.889534 -15.475974 1.304042 6.709939 -3.184981 9.136685 -143.870872 76.153911 38.378047 -5.885222 -63.539331 -47.822567 -21.511285 12.437560 -0.928822 3.376569 8.834320 -2.408812 
-183.201401 90.014793 104.453102 84.690104 -4.005500 1.486115 -162.897170 -1.597397 178.998440 -29.345781 1.080817 6.680871 75.735439 -6.375371 -5.596859 21.454558 0.003110 0.000020 170.922001 -6.553406 172.727766 -10.360755 3.955372 4.216636 69.802464 -4.725652 -4.746149 21.454551 -0.003092 -0.000000 6.042638 1.614742 -1.940085 2.018352 3.262042 -3.854159 1.700484 3.238587 -3.873765 14.659048 -8.008969 0.494049 -22.733120 2.031610 -0.579841 174.201024 -74.008262 4.545571 -10.011351 59.444031 45.970114 -31.266516 -15.474460 1.311597 6.685626 -1.691530 10.912633 -144.835090 75.965145 37.401433 -6.960344 -62.984569 -45.866175 -22.187950 12.859353 -0.964689 3.320457 9.710816 -1.482691 
